<svg xmlns="http://www.w3.org/2000/svg" xmlns:xlink="http://www.w3.org/1999/xlink" width="500" zoomAndPan="magnify" viewBox="0 0 375 374.999991" height="500" preserveAspectRatio="xMidYMid meet" version="1.0"><defs><g/><clipPath id="id1"><path d="M 38 16 L 328 16 L 328 267.5 L 38 267.5 Z M 38 16 " clip-rule="nonzero"/></clipPath></defs><rect x="-37.5" width="450" fill="#ffffff" y="-37.499999" height="449.999989" fill-opacity="1"/><rect x="-37.5" width="450" fill="#ffffff" y="-37.499999" height="449.999989" fill-opacity="1"/><rect x="-37.5" width="450" fill="#ffffff" y="-37.499999" height="449.999989" fill-opacity="1"/><g clip-path="url(#id1)"><path fill="#48af54" d="M 314.253906 29.625 C 291.09375 6.480469 244.671875 18.589844 209.808594 32.824219 C 172.289062 48.148438 132.40625 72.507812 112.828125 92.078125 C 76.878906 128.003906 74.667969 185.078125 106.195312 223.605469 L 89.019531 240.769531 C 84.527344 245.261719 78.550781 247.734375 72.195312 247.734375 C 65.839844 247.734375 59.863281 245.261719 55.371094 240.765625 C 51.515625 236.914062 45.265625 236.914062 41.414062 240.765625 C 37.558594 244.617188 37.558594 250.863281 41.414062 254.714844 C 49.632812 262.929688 60.570312 267.457031 72.195312 267.457031 C 83.820312 267.457031 94.753906 262.929688 102.976562 254.714844 L 120.152344 237.546875 C 138.167969 252.273438 160.230469 259.632812 182.289062 259.632812 C 207.449219 259.632812 232.601562 250.0625 251.757812 230.925781 C 271.335938 211.355469 295.714844 171.503906 311.042969 134 C 325.292969 99.164062 337.410156 52.769531 314.253906 29.625 Z M 292.773438 126.542969 C 276.664062 165.941406 252.929688 201.855469 237.800781 216.976562 C 222.972656 231.796875 203.261719 239.953125 182.289062 239.953125 C 161.320312 239.953125 141.609375 231.789062 126.78125 216.976562 C 111.949219 202.15625 103.789062 182.457031 103.789062 161.5 C 103.789062 140.539062 111.957031 120.839844 126.78125 106.019531 C 141.90625 90.902344 177.84375 67.175781 217.265625 51.078125 C 241.070312 41.359375 261.644531 36.40625 276.917969 36.40625 C 282.519531 36.40625 287.402344 37.082031 291.472656 38.425781 L 175.800781 154.027344 L 175.800781 110.574219 C 175.800781 105.128906 171.378906 100.710938 165.929688 100.710938 C 160.484375 100.710938 156.0625 105.128906 156.0625 110.574219 L 156.0625 177.847656 C 156.0625 183.292969 160.484375 187.710938 165.929688 187.710938 C 168.65625 187.710938 171.128906 186.605469 172.914062 184.820312 L 305.433594 52.382812 C 310.445312 67.535156 306.066406 94.03125 292.773438 126.542969 Z M 292.773438 126.542969 " fill-opacity="1" fill-rule="nonzero"/></g><g fill="#272830" fill-opacity="1"><g transform="translate(38.3981, 306.225683)"><g><path d="M 15.5 -28.34375 C 19.125 -28.34375 21.957031 -27.460938 24 -25.703125 C 26.039062 -23.953125 27.207031 -21.640625 27.5 -18.765625 L 27.546875 -18.359375 L 21.984375 -18.359375 L 21.90625 -18.765625 C 21.175781 -22.390625 19.015625 -24.203125 15.421875 -24.203125 C 13.171875 -24.203125 11.359375 -23.296875 9.984375 -21.484375 C 8.617188 -19.671875 7.9375 -17.191406 7.9375 -14.046875 C 7.9375 -10.691406 8.617188 -8.109375 9.984375 -6.296875 C 11.359375 -4.484375 13.144531 -3.578125 15.34375 -3.578125 C 17.113281 -3.578125 18.535156 -4.070312 19.609375 -5.0625 C 20.679688 -6.0625 21.40625 -7.445312 21.78125 -9.21875 L 21.859375 -9.625 L 27.375 -9.625 L 27.34375 -9.21875 C 27.039062 -6.21875 25.800781 -3.835938 23.625 -2.078125 C 21.457031 -0.316406 18.613281 0.5625 15.09375 0.5625 C 11.175781 0.5625 8.019531 -0.722656 5.625 -3.296875 C 3.238281 -5.878906 2.046875 -9.359375 2.046875 -13.734375 C 2.046875 -18.191406 3.304688 -21.738281 5.828125 -24.375 C 8.359375 -27.019531 11.582031 -28.34375 15.5 -28.34375 Z M 15.5 -28.34375 "/></g></g></g><g fill="#272830" fill-opacity="1"><g transform="translate(66.503495, 306.225683)"><g><path d="M 22.515625 -15.984375 C 22.617188 -15.015625 22.671875 -13.710938 22.671875 -12.078125 L 22.671875 0 L 17.109375 0 L 17.109375 -11.3125 C 17.109375 -12.570312 17.082031 -13.566406 17.03125 -14.296875 C 16.84375 -16.816406 15.472656 -18.078125 12.921875 -18.078125 C 11.472656 -18.046875 10.304688 -17.359375 9.421875 -16.015625 C 8.535156 -14.679688 8.09375 -12.601562 8.09375 -9.78125 L 8.09375 0 L 2.53125 0 L 2.53125 -29.796875 L 8.09375 -29.796875 L 8.09375 -17.953125 L 9.75 -20.5 C 11.144531 -21.488281 12.859375 -21.984375 14.890625 -21.984375 C 17.148438 -21.984375 18.929688 -21.457031 20.234375 -20.40625 C 21.535156 -19.363281 22.296875 -17.890625 22.515625 -15.984375 Z M 22.515625 -15.984375 "/></g></g></g><g fill="#272830" fill-opacity="1"><g transform="translate(90.703112, 306.225683)"><g><path d="M 21.984375 -11.15625 C 21.984375 -10.375 21.957031 -9.742188 21.90625 -9.265625 L 6.6875 -9.265625 C 7.007812 -5.316406 8.660156 -3.34375 11.640625 -3.34375 C 12.847656 -3.34375 13.847656 -3.664062 14.640625 -4.3125 C 15.429688 -4.957031 15.921875 -5.84375 16.109375 -6.96875 L 21.65625 -6.96875 C 21.125 -4.519531 19.953125 -2.648438 18.140625 -1.359375 C 16.328125 -0.078125 14.117188 0.5625 11.515625 0.5625 C 8.429688 0.5625 5.921875 -0.394531 3.984375 -2.3125 C 2.054688 -4.226562 1.09375 -7 1.09375 -10.625 C 1.09375 -13.957031 2.09375 -16.679688 4.09375 -18.796875 C 6.09375 -20.921875 8.710938 -21.984375 11.953125 -21.984375 C 15.097656 -21.984375 17.554688 -20.945312 19.328125 -18.875 C 21.097656 -16.8125 21.984375 -14.238281 21.984375 -11.15625 Z M 11.71875 -18.078125 C 8.945312 -18.078125 7.320312 -16.347656 6.84375 -12.890625 L 16.265625 -12.890625 C 15.890625 -16.347656 14.375 -18.078125 11.71875 -18.078125 Z M 11.71875 -18.078125 "/></g></g></g><g fill="#272830" fill-opacity="1"><g transform="translate(113.171308, 306.225683)"><g><path d="M 11.796875 -21.984375 C 14.617188 -21.984375 16.898438 -21.210938 18.640625 -19.671875 C 20.390625 -18.128906 21.367188 -16.132812 21.578125 -13.6875 L 16.109375 -13.6875 C 15.617188 -16.613281 14.140625 -18.078125 11.671875 -18.078125 C 10.203125 -18.078125 9.03125 -17.472656 8.15625 -16.265625 C 7.28125 -15.054688 6.84375 -13.269531 6.84375 -10.90625 C 6.84375 -8.363281 7.269531 -6.46875 8.125 -5.21875 C 8.988281 -3.96875 10.160156 -3.34375 11.640625 -3.34375 C 12.734375 -3.34375 13.660156 -3.691406 14.421875 -4.390625 C 15.191406 -5.085938 15.710938 -6.09375 15.984375 -7.40625 L 21.546875 -7.40625 C 21.085938 -4.832031 19.953125 -2.859375 18.140625 -1.484375 C 16.328125 -0.117188 14.050781 0.5625 11.3125 0.5625 C 8.28125 0.5625 5.816406 -0.394531 3.921875 -2.3125 C 2.035156 -4.226562 1.09375 -6.972656 1.09375 -10.546875 C 1.09375 -14.085938 2.109375 -16.878906 4.140625 -18.921875 C 6.179688 -20.960938 8.734375 -21.984375 11.796875 -21.984375 Z M 11.796875 -21.984375 "/></g></g></g><g fill="#272830" fill-opacity="1"><g transform="translate(134.954987, 306.225683)"><g><path d="M 9.859375 -8.453125 L 8.09375 -6.515625 L 8.09375 0 L 2.53125 0 L 2.53125 -29.59375 L 8.09375 -29.59375 L 8.09375 -11.640625 L 16.703125 -21.421875 L 23.390625 -21.421875 L 13.890625 -11.46875 L 23.515625 0 L 16.515625 0 Z M 9.859375 -8.453125 "/></g></g></g><g fill="#272830" fill-opacity="1"><g transform="translate(157.624506, 306.225683)"><g><path d="M 15.5 -28.34375 C 19.125 -28.34375 21.957031 -27.460938 24 -25.703125 C 26.039062 -23.953125 27.207031 -21.640625 27.5 -18.765625 L 27.546875 -18.359375 L 21.984375 -18.359375 L 21.90625 -18.765625 C 21.175781 -22.390625 19.015625 -24.203125 15.421875 -24.203125 C 13.171875 -24.203125 11.359375 -23.296875 9.984375 -21.484375 C 8.617188 -19.671875 7.9375 -17.191406 7.9375 -14.046875 C 7.9375 -10.691406 8.617188 -8.109375 9.984375 -6.296875 C 11.359375 -4.484375 13.144531 -3.578125 15.34375 -3.578125 C 17.113281 -3.578125 18.535156 -4.070312 19.609375 -5.0625 C 20.679688 -6.0625 21.40625 -7.445312 21.78125 -9.21875 L 21.859375 -9.625 L 27.375 -9.625 L 27.34375 -9.21875 C 27.039062 -6.21875 25.800781 -3.835938 23.625 -2.078125 C 21.457031 -0.316406 18.613281 0.5625 15.09375 0.5625 C 11.175781 0.5625 8.019531 -0.722656 5.625 -3.296875 C 3.238281 -5.878906 2.046875 -9.359375 2.046875 -13.734375 C 2.046875 -18.191406 3.304688 -21.738281 5.828125 -24.375 C 8.359375 -27.019531 11.582031 -28.34375 15.5 -28.34375 Z M 15.5 -28.34375 "/></g></g></g><g fill="#272830" fill-opacity="1"><g transform="translate(185.729901, 306.225683)"><g><path d="M 4.03125 -18.859375 C 5.988281 -20.941406 8.710938 -21.984375 12.203125 -21.984375 C 15.691406 -21.984375 18.414062 -20.941406 20.375 -18.859375 C 22.332031 -16.785156 23.3125 -14.066406 23.3125 -10.703125 C 23.3125 -7.378906 22.332031 -4.671875 20.375 -2.578125 C 18.414062 -0.484375 15.691406 0.5625 12.203125 0.5625 C 8.710938 0.5625 5.988281 -0.484375 4.03125 -2.578125 C 2.070312 -4.671875 1.09375 -7.378906 1.09375 -10.703125 C 1.09375 -14.066406 2.070312 -16.785156 4.03125 -18.859375 Z M 8.265625 -5.296875 C 9.222656 -3.992188 10.535156 -3.34375 12.203125 -3.34375 C 13.867188 -3.34375 15.175781 -3.992188 16.125 -5.296875 C 17.082031 -6.597656 17.5625 -8.398438 17.5625 -10.703125 C 17.5625 -13.015625 17.082031 -14.820312 16.125 -16.125 C 15.175781 -17.425781 13.867188 -18.078125 12.203125 -18.078125 C 10.535156 -18.078125 9.222656 -17.425781 8.265625 -16.125 C 7.316406 -14.820312 6.84375 -13.015625 6.84375 -10.703125 C 6.84375 -8.398438 7.316406 -6.597656 8.265625 -5.296875 Z M 8.265625 -5.296875 "/></g></g></g><g fill="#272830" fill-opacity="1"><g transform="translate(209.325534, 306.225683)"><g><path d="M 22.515625 -15.984375 C 22.617188 -15.015625 22.671875 -13.710938 22.671875 -12.078125 L 22.671875 0 L 17.109375 0 L 17.109375 -11.3125 C 17.109375 -12.570312 17.082031 -13.566406 17.03125 -14.296875 C 16.84375 -16.816406 15.472656 -18.078125 12.921875 -18.078125 C 11.472656 -18.078125 10.304688 -17.398438 9.421875 -16.046875 C 8.535156 -14.691406 8.09375 -12.601562 8.09375 -9.78125 L 8.09375 0 L 2.53125 0 L 2.53125 -21.421875 L 8.09375 -21.421875 L 8.09375 -17.953125 L 9.75 -20.5 C 11.144531 -21.488281 12.859375 -21.984375 14.890625 -21.984375 C 17.148438 -21.984375 18.929688 -21.457031 20.234375 -20.40625 C 21.535156 -19.363281 22.296875 -17.890625 22.515625 -15.984375 Z M 22.515625 -15.984375 "/></g></g></g><g fill="#272830" fill-opacity="1"><g transform="translate(233.525163, 306.225683)"><g><path d="M 11.796875 -21.984375 C 14.617188 -21.984375 16.898438 -21.210938 18.640625 -19.671875 C 20.390625 -18.128906 21.367188 -16.132812 21.578125 -13.6875 L 16.109375 -13.6875 C 15.617188 -16.613281 14.140625 -18.078125 11.671875 -18.078125 C 10.203125 -18.078125 9.03125 -17.472656 8.15625 -16.265625 C 7.28125 -15.054688 6.84375 -13.269531 6.84375 -10.90625 C 6.84375 -8.363281 7.269531 -6.46875 8.125 -5.21875 C 8.988281 -3.96875 10.160156 -3.34375 11.640625 -3.34375 C 12.734375 -3.34375 13.660156 -3.691406 14.421875 -4.390625 C 15.191406 -5.085938 15.710938 -6.09375 15.984375 -7.40625 L 21.546875 -7.40625 C 21.085938 -4.832031 19.953125 -2.859375 18.140625 -1.484375 C 16.328125 -0.117188 14.050781 0.5625 11.3125 0.5625 C 8.28125 0.5625 5.816406 -0.394531 3.921875 -2.3125 C 2.035156 -4.226562 1.09375 -6.972656 1.09375 -10.546875 C 1.09375 -14.085938 2.109375 -16.878906 4.140625 -18.921875 C 6.179688 -20.960938 8.734375 -21.984375 11.796875 -21.984375 Z M 11.796875 -21.984375 "/></g></g></g><g fill="#272830" fill-opacity="1"><g transform="translate(255.308853, 306.225683)"><g><path d="M 21.984375 -11.15625 C 21.984375 -10.375 21.957031 -9.742188 21.90625 -9.265625 L 6.6875 -9.265625 C 7.007812 -5.316406 8.660156 -3.34375 11.640625 -3.34375 C 12.847656 -3.34375 13.847656 -3.664062 14.640625 -4.3125 C 15.429688 -4.957031 15.921875 -5.84375 16.109375 -6.96875 L 21.65625 -6.96875 C 21.125 -4.519531 19.953125 -2.648438 18.140625 -1.359375 C 16.328125 -0.078125 14.117188 0.5625 11.515625 0.5625 C 8.429688 0.5625 5.921875 -0.394531 3.984375 -2.3125 C 2.054688 -4.226562 1.09375 -7 1.09375 -10.625 C 1.09375 -13.957031 2.09375 -16.679688 4.09375 -18.796875 C 6.09375 -20.921875 8.710938 -21.984375 11.953125 -21.984375 C 15.097656 -21.984375 17.554688 -20.945312 19.328125 -18.875 C 21.097656 -16.8125 21.984375 -14.238281 21.984375 -11.15625 Z M 11.71875 -18.078125 C 8.945312 -18.078125 7.320312 -16.347656 6.84375 -12.890625 L 16.265625 -12.890625 C 15.890625 -16.347656 14.375 -18.078125 11.71875 -18.078125 Z M 11.71875 -18.078125 "/></g></g></g><g fill="#272830" fill-opacity="1"><g transform="translate(277.777037, 306.225683)"><g><path d="M 15.265625 -21.984375 C 18.210938 -21.984375 20.535156 -20.972656 22.234375 -18.953125 C 23.941406 -16.941406 24.796875 -14.328125 24.796875 -11.109375 C 24.796875 -7.410156 23.816406 -4.539062 21.859375 -2.5 C 19.898438 -0.457031 17.457031 0.5625 14.53125 0.5625 C 12.332031 0.5625 10.65625 0.160156 9.5 -0.640625 L 8.09375 -2.859375 L 8.09375 7.890625 L 2.53125 7.890625 L 2.53125 -21.421875 L 8.09375 -21.421875 L 8.09375 -18.15625 L 9.703125 -20.5 C 10.941406 -21.488281 12.796875 -21.984375 15.265625 -21.984375 Z M 13.453125 -3.34375 C 15.109375 -3.34375 16.453125 -3.976562 17.484375 -5.25 C 18.523438 -6.53125 19.046875 -8.363281 19.046875 -10.75 C 19.046875 -12.945312 18.554688 -14.71875 17.578125 -16.0625 C 16.597656 -17.40625 15.289062 -18.078125 13.65625 -18.078125 C 11.988281 -18.078125 10.644531 -17.503906 9.625 -16.359375 C 8.601562 -15.222656 8.09375 -13.421875 8.09375 -10.953125 L 8.09375 -9.953125 C 8.09375 -7.691406 8.613281 -6.023438 9.65625 -4.953125 C 10.707031 -3.878906 11.972656 -3.34375 13.453125 -3.34375 Z M 13.453125 -3.34375 "/></g></g></g><g fill="#272830" fill-opacity="1"><g transform="translate(302.862485, 306.225683)"><g><path d="M 9.1875 -17.59375 L 9.1875 -7.6875 C 9.1875 -6.800781 9.195312 -6.171875 9.21875 -5.796875 C 9.300781 -4.753906 9.609375 -4.078125 10.140625 -3.765625 C 10.679688 -3.453125 11.71875 -3.351562 13.25 -3.46875 L 13.25 0.15625 C 12.09375 0.34375 10.867188 0.4375 9.578125 0.4375 C 7.535156 0.4375 6.078125 0.0976562 5.203125 -0.578125 C 4.335938 -1.265625 3.835938 -2.390625 3.703125 -3.953125 C 3.648438 -4.585938 3.625 -5.617188 3.625 -7.046875 L 3.625 -17.59375 L 0.484375 -17.59375 L 0.484375 -21.265625 L 3.625 -21.265625 L 3.625 -26.53125 L 9.1875 -26.53125 L 9.1875 -21.265625 L 13.609375 -21.265625 L 13.609375 -17.59375 Z M 9.1875 -17.59375 "/></g></g></g><g fill="#272830" fill-opacity="1"><g transform="translate(316.593014, 306.225683)"><g><path d="M 10.1875 -21.984375 C 12.65625 -21.984375 14.628906 -21.363281 16.109375 -20.125 C 17.585938 -18.894531 18.445312 -17.257812 18.6875 -15.21875 L 13.125 -15.21875 C 12.75 -17.289062 11.648438 -18.328125 9.828125 -18.328125 C 9.015625 -18.328125 8.382812 -18.117188 7.9375 -17.703125 C 7.5 -17.285156 7.28125 -16.726562 7.28125 -16.03125 C 7.28125 -15.21875 7.644531 -14.570312 8.375 -14.09375 C 9.101562 -13.613281 10.363281 -13.144531 12.15625 -12.6875 C 14.488281 -12.09375 16.234375 -11.269531 17.390625 -10.21875 C 18.546875 -9.175781 19.125 -7.71875 19.125 -5.84375 C 19.125 -3.769531 18.296875 -2.179688 16.640625 -1.078125 C 14.992188 0.015625 12.882812 0.5625 10.3125 0.5625 C 7.625 0.5625 5.445312 -0.0234375 3.78125 -1.203125 C 2.113281 -2.390625 1.132812 -4.160156 0.84375 -6.515625 L 6.40625 -6.515625 C 6.613281 -5.390625 7.070312 -4.535156 7.78125 -3.953125 C 8.5 -3.378906 9.367188 -3.09375 10.390625 -3.09375 C 11.328125 -3.09375 12.082031 -3.296875 12.65625 -3.703125 C 13.238281 -4.109375 13.53125 -4.6875 13.53125 -5.4375 C 13.53125 -6.269531 13.140625 -6.945312 12.359375 -7.46875 C 11.578125 -7.988281 10.265625 -8.476562 8.421875 -8.9375 C 6.242188 -9.476562 4.578125 -10.25 3.421875 -11.25 C 2.265625 -12.257812 1.6875 -13.632812 1.6875 -15.375 C 1.6875 -17.414062 2.457031 -19.023438 4 -20.203125 C 5.550781 -21.390625 7.613281 -21.984375 10.1875 -21.984375 Z M 10.1875 -21.984375 "/></g></g></g><g fill="#272830" fill-opacity="1"><g transform="translate(10.011656, 344.249977)"><g><path d="M 7.71875 -12.765625 C 9.3125 -12.578125 10.59375 -11.96875 11.5625 -10.9375 C 12.53125 -9.90625 13.015625 -8.457031 13.015625 -6.59375 C 13.015625 -4.707031 12.515625 -3.195312 11.515625 -2.0625 C 10.523438 -0.925781 9.25 -0.265625 7.6875 -0.078125 C 7.25 -0.0234375 6.703125 0 6.046875 0 L 1.65625 0 L 1.65625 -12.84375 L 6.078125 -12.84375 C 6.742188 -12.84375 7.289062 -12.816406 7.71875 -12.765625 Z M 7.109375 -2.078125 C 8.085938 -2.203125 8.863281 -2.65625 9.4375 -3.4375 C 10.007812 -4.21875 10.296875 -5.253906 10.296875 -6.546875 C 10.296875 -7.785156 10.015625 -8.765625 9.453125 -9.484375 C 8.890625 -10.203125 8.128906 -10.625 7.171875 -10.75 C 6.785156 -10.800781 6.320312 -10.828125 5.78125 -10.828125 L 4.21875 -10.828125 L 4.21875 -2.03125 L 5.75 -2.03125 C 6.382812 -2.03125 6.835938 -2.046875 7.109375 -2.078125 Z M 7.109375 -2.078125 "/></g></g></g><g fill="#272830" fill-opacity="1"><g transform="translate(25.849328, 344.249977)"><g><path d="M 7.296875 -13.09375 C 9.253906 -13.09375 10.800781 -12.488281 11.9375 -11.28125 C 13.070312 -10.070312 13.640625 -8.453125 13.640625 -6.421875 C 13.640625 -4.398438 13.070312 -2.78125 11.9375 -1.5625 C 10.800781 -0.34375 9.253906 0.265625 7.296875 0.265625 C 5.335938 0.265625 3.789062 -0.34375 2.65625 -1.5625 C 1.519531 -2.78125 0.953125 -4.398438 0.953125 -6.421875 C 0.953125 -8.453125 1.515625 -10.070312 2.640625 -11.28125 C 3.773438 -12.488281 5.328125 -13.09375 7.296875 -13.09375 Z M 4.59375 -2.90625 C 5.25 -2.070312 6.144531 -1.65625 7.28125 -1.65625 C 8.425781 -1.65625 9.320312 -2.078125 9.96875 -2.921875 C 10.613281 -3.765625 10.9375 -4.929688 10.9375 -6.421875 C 10.9375 -7.921875 10.613281 -9.085938 9.96875 -9.921875 C 9.320312 -10.765625 8.429688 -11.1875 7.296875 -11.1875 C 6.140625 -11.1875 5.238281 -10.765625 4.59375 -9.921875 C 3.945312 -9.085938 3.625 -7.921875 3.625 -6.421875 C 3.625 -4.921875 3.945312 -3.75 4.59375 -2.90625 Z M 4.59375 -2.90625 "/></g></g></g><g fill="#272830" fill-opacity="1"><g transform="translate(42.319721, 344.249977)"><g><path d="M 12.9375 0 L 9.421875 0 L 4.125 -9.75 C 4.1875 -8.582031 4.21875 -7.269531 4.21875 -5.8125 L 4.21875 0 L 1.65625 0 L 1.65625 -12.84375 L 5.0625 -12.84375 L 10.453125 -2.90625 C 10.390625 -4.0625 10.359375 -5.40625 10.359375 -6.9375 L 10.359375 -12.84375 L 12.921875 -12.84375 Z M 12.9375 0 "/></g></g></g><g fill="#272830" fill-opacity="1"><g transform="translate(58.697062, 344.249977)"><g><path d="M 2.703125 -8.5625 L 0.90625 -8.5625 L 0.65625 -13.671875 L 2.9375 -13.671875 Z M 2.703125 -8.5625 "/></g></g></g><g fill="#272830" fill-opacity="1"><g transform="translate(64.653174, 344.249977)"><g><path d="M 11.703125 -10.828125 L 7.34375 -10.828125 L 7.34375 0 L 4.78125 0 L 4.78125 -10.828125 L 0.421875 -10.828125 L 0.421875 -12.84375 L 11.703125 -12.84375 Z M 11.703125 -10.828125 "/></g></g></g><g fill="#272830" fill-opacity="1"><g transform="translate(78.481035, 344.249977)"><g/></g></g><g fill="#272830" fill-opacity="1"><g transform="translate(84.325486, 344.249977)"><g><path d="M 10.953125 -3.234375 C 11.117188 -1.710938 11.429688 -0.632812 11.890625 0 L 9.078125 0 C 8.765625 -0.851562 8.554688 -1.804688 8.453125 -2.859375 C 8.273438 -4.316406 7.695312 -5.082031 6.71875 -5.15625 C 6.476562 -5.164062 6.144531 -5.171875 5.71875 -5.171875 L 4.21875 -5.171875 L 4.21875 0 L 1.65625 0 L 1.65625 -12.84375 L 6.34375 -12.84375 C 7.050781 -12.84375 7.671875 -12.8125 8.203125 -12.75 C 9.222656 -12.625 10.039062 -12.285156 10.65625 -11.734375 C 11.269531 -11.179688 11.578125 -10.382812 11.578125 -9.34375 C 11.578125 -8.53125 11.351562 -7.859375 10.90625 -7.328125 C 10.457031 -6.804688 9.84375 -6.4375 9.0625 -6.21875 C 10.164062 -5.789062 10.796875 -4.796875 10.953125 -3.234375 Z M 4.21875 -7.09375 L 6 -7.09375 C 6.5 -7.09375 6.84375 -7.097656 7.03125 -7.109375 C 8.257812 -7.222656 8.875 -7.835938 8.875 -8.953125 C 8.875 -9.535156 8.726562 -9.960938 8.4375 -10.234375 C 8.144531 -10.515625 7.726562 -10.695312 7.1875 -10.78125 C 6.882812 -10.8125 6.523438 -10.828125 6.109375 -10.828125 L 4.21875 -10.828125 Z M 4.21875 -7.09375 "/></g></g></g><g fill="#272830" fill-opacity="1"><g transform="translate(98.730244, 344.249977)"><g><path d="M 10.921875 -2.03125 L 10.921875 0 L 1.65625 0 L 1.65625 -12.84375 L 10.734375 -12.84375 L 10.734375 -10.828125 L 4.21875 -10.828125 L 4.21875 -7.4375 L 10.265625 -7.4375 L 10.265625 -5.421875 L 4.21875 -5.421875 L 4.21875 -2.03125 Z M 10.921875 -2.03125 "/></g></g></g><g fill="#272830" fill-opacity="1"><g transform="translate(112.427837, 344.249977)"><g><path d="M 8.609375 -3.875 L 4.296875 -3.875 L 3.015625 0 L 0.28125 0 L 4.90625 -12.84375 L 8.125 -12.84375 L 12.671875 0 L 9.875 0 Z M 6.46875 -10.640625 L 4.953125 -5.90625 L 7.96875 -5.90625 Z M 6.46875 -10.640625 "/></g></g></g><g fill="#272830" fill-opacity="1"><g transform="translate(127.241995, 344.249977)"><g><path d="M 7.71875 -12.765625 C 9.3125 -12.578125 10.59375 -11.96875 11.5625 -10.9375 C 12.53125 -9.90625 13.015625 -8.457031 13.015625 -6.59375 C 13.015625 -4.707031 12.515625 -3.195312 11.515625 -2.0625 C 10.523438 -0.925781 9.25 -0.265625 7.6875 -0.078125 C 7.25 -0.0234375 6.703125 0 6.046875 0 L 1.65625 0 L 1.65625 -12.84375 L 6.078125 -12.84375 C 6.742188 -12.84375 7.289062 -12.816406 7.71875 -12.765625 Z M 7.109375 -2.078125 C 8.085938 -2.203125 8.863281 -2.65625 9.4375 -3.4375 C 10.007812 -4.21875 10.296875 -5.253906 10.296875 -6.546875 C 10.296875 -7.785156 10.015625 -8.765625 9.453125 -9.484375 C 8.890625 -10.203125 8.128906 -10.625 7.171875 -10.75 C 6.785156 -10.800781 6.320312 -10.828125 5.78125 -10.828125 L 4.21875 -10.828125 L 4.21875 -2.03125 L 5.75 -2.03125 C 6.382812 -2.03125 6.835938 -2.046875 7.109375 -2.078125 Z M 7.109375 -2.078125 "/></g></g></g><g fill="#272830" fill-opacity="1"><g transform="translate(143.079668, 344.249977)"><g/></g></g><g fill="#272830" fill-opacity="1"><g transform="translate(148.924119, 344.249977)"><g><path d="M 4.21875 0 L 1.65625 0 L 1.65625 -12.84375 L 4.21875 -12.84375 Z M 4.21875 0 "/></g></g></g><g fill="#272830" fill-opacity="1"><g transform="translate(156.59229, 344.249977)"><g><path d="M 11.703125 -10.828125 L 7.34375 -10.828125 L 7.34375 0 L 4.78125 0 L 4.78125 -10.828125 L 0.421875 -10.828125 L 0.421875 -12.84375 L 11.703125 -12.84375 Z M 11.703125 -10.828125 "/></g></g></g><g fill="#272830" fill-opacity="1"><g transform="translate(170.420151, 344.249977)"><g><path d="M 3.4375 -2.421875 L 1.5625 2.265625 L -0.515625 2.265625 L 0.953125 -2.609375 L 3.4375 -2.609375 Z M 3.4375 -2.421875 "/></g></g></g><g fill="#272830" fill-opacity="1"><g transform="translate(177.213683, 344.249977)"><g/></g></g><g fill="#272830" fill-opacity="1"><g transform="translate(183.058135, 344.249977)"><g><path d="M 12.078125 -12.84375 L 12.078125 -5.234375 C 12.078125 -4.617188 12.066406 -4.113281 12.046875 -3.71875 C 11.953125 -2.550781 11.472656 -1.59375 10.609375 -0.84375 C 9.753906 -0.101562 8.484375 0.265625 6.796875 0.265625 C 5.097656 0.265625 3.816406 -0.101562 2.953125 -0.84375 C 2.085938 -1.59375 1.613281 -2.550781 1.53125 -3.71875 C 1.5 -4.113281 1.484375 -4.617188 1.484375 -5.234375 L 1.484375 -12.84375 L 4.03125 -12.84375 L 4.03125 -4.96875 C 4.03125 -4.53125 4.046875 -4.21875 4.078125 -4.03125 C 4.140625 -3.28125 4.394531 -2.695312 4.84375 -2.28125 C 5.300781 -1.863281 5.953125 -1.65625 6.796875 -1.65625 C 7.628906 -1.65625 8.269531 -1.863281 8.71875 -2.28125 C 9.164062 -2.695312 9.421875 -3.28125 9.484375 -4.03125 C 9.515625 -4.21875 9.53125 -4.53125 9.53125 -4.96875 L 9.53125 -12.84375 Z M 12.078125 -12.84375 "/></g></g></g><g fill="#272830" fill-opacity="1"><g transform="translate(198.356138, 344.249977)"><g><path d="M 12.9375 0 L 9.421875 0 L 4.125 -9.75 C 4.1875 -8.582031 4.21875 -7.269531 4.21875 -5.8125 L 4.21875 0 L 1.65625 0 L 1.65625 -12.84375 L 5.0625 -12.84375 L 10.453125 -2.90625 C 10.390625 -4.0625 10.359375 -5.40625 10.359375 -6.9375 L 10.359375 -12.84375 L 12.921875 -12.84375 Z M 12.9375 0 "/></g></g></g><g fill="#272830" fill-opacity="1"><g transform="translate(214.733491, 344.249977)"><g><path d="M 7.71875 -12.765625 C 9.3125 -12.578125 10.59375 -11.96875 11.5625 -10.9375 C 12.53125 -9.90625 13.015625 -8.457031 13.015625 -6.59375 C 13.015625 -4.707031 12.515625 -3.195312 11.515625 -2.0625 C 10.523438 -0.925781 9.25 -0.265625 7.6875 -0.078125 C 7.25 -0.0234375 6.703125 0 6.046875 0 L 1.65625 0 L 1.65625 -12.84375 L 6.078125 -12.84375 C 6.742188 -12.84375 7.289062 -12.816406 7.71875 -12.765625 Z M 7.109375 -2.078125 C 8.085938 -2.203125 8.863281 -2.65625 9.4375 -3.4375 C 10.007812 -4.21875 10.296875 -5.253906 10.296875 -6.546875 C 10.296875 -7.785156 10.015625 -8.765625 9.453125 -9.484375 C 8.890625 -10.203125 8.128906 -10.625 7.171875 -10.75 C 6.785156 -10.800781 6.320312 -10.828125 5.78125 -10.828125 L 4.21875 -10.828125 L 4.21875 -2.03125 L 5.75 -2.03125 C 6.382812 -2.03125 6.835938 -2.046875 7.109375 -2.078125 Z M 7.109375 -2.078125 "/></g></g></g><g fill="#272830" fill-opacity="1"><g transform="translate(230.571152, 344.249977)"><g><path d="M 10.921875 -2.03125 L 10.921875 0 L 1.65625 0 L 1.65625 -12.84375 L 10.734375 -12.84375 L 10.734375 -10.828125 L 4.21875 -10.828125 L 4.21875 -7.4375 L 10.265625 -7.4375 L 10.265625 -5.421875 L 4.21875 -5.421875 L 4.21875 -2.03125 Z M 10.921875 -2.03125 "/></g></g></g><g fill="#272830" fill-opacity="1"><g transform="translate(244.268744, 344.249977)"><g><path d="M 10.953125 -3.234375 C 11.117188 -1.710938 11.429688 -0.632812 11.890625 0 L 9.078125 0 C 8.765625 -0.851562 8.554688 -1.804688 8.453125 -2.859375 C 8.273438 -4.316406 7.695312 -5.082031 6.71875 -5.15625 C 6.476562 -5.164062 6.144531 -5.171875 5.71875 -5.171875 L 4.21875 -5.171875 L 4.21875 0 L 1.65625 0 L 1.65625 -12.84375 L 6.34375 -12.84375 C 7.050781 -12.84375 7.671875 -12.8125 8.203125 -12.75 C 9.222656 -12.625 10.039062 -12.285156 10.65625 -11.734375 C 11.269531 -11.179688 11.578125 -10.382812 11.578125 -9.34375 C 11.578125 -8.53125 11.351562 -7.859375 10.90625 -7.328125 C 10.457031 -6.804688 9.84375 -6.4375 9.0625 -6.21875 C 10.164062 -5.789062 10.796875 -4.796875 10.953125 -3.234375 Z M 4.21875 -7.09375 L 6 -7.09375 C 6.5 -7.09375 6.84375 -7.097656 7.03125 -7.109375 C 8.257812 -7.222656 8.875 -7.835938 8.875 -8.953125 C 8.875 -9.535156 8.726562 -9.960938 8.4375 -10.234375 C 8.144531 -10.515625 7.726562 -10.695312 7.1875 -10.78125 C 6.882812 -10.8125 6.523438 -10.828125 6.109375 -10.828125 L 4.21875 -10.828125 Z M 4.21875 -7.09375 "/></g></g></g><g fill="#272830" fill-opacity="1"><g transform="translate(258.67349, 344.249977)"><g><path d="M 5.921875 -13.09375 C 7.378906 -13.09375 8.492188 -12.726562 9.265625 -12 C 10.046875 -11.269531 10.507812 -10.289062 10.65625 -9.0625 L 8.046875 -9.0625 C 7.960938 -9.726562 7.734375 -10.25 7.359375 -10.625 C 6.992188 -11 6.484375 -11.1875 5.828125 -11.1875 C 5.296875 -11.1875 4.859375 -11.054688 4.515625 -10.796875 C 4.179688 -10.535156 4.015625 -10.15625 4.015625 -9.65625 C 4.015625 -9.113281 4.21875 -8.6875 4.625 -8.375 C 5.03125 -8.0625 5.738281 -7.789062 6.75 -7.5625 C 8.15625 -7.238281 9.1875 -6.742188 9.84375 -6.078125 C 10.507812 -5.421875 10.84375 -4.570312 10.84375 -3.53125 C 10.84375 -2.363281 10.382812 -1.4375 9.46875 -0.75 C 8.550781 -0.0703125 7.429688 0.265625 6.109375 0.265625 C 4.546875 0.265625 3.296875 -0.078125 2.359375 -0.765625 C 1.429688 -1.460938 0.90625 -2.472656 0.78125 -3.796875 L 3.40625 -3.796875 C 3.539062 -3.109375 3.847656 -2.578125 4.328125 -2.203125 C 4.816406 -1.835938 5.394531 -1.65625 6.0625 -1.65625 C 6.65625 -1.65625 7.15625 -1.800781 7.5625 -2.09375 C 7.96875 -2.394531 8.171875 -2.789062 8.171875 -3.28125 C 8.171875 -3.820312 7.972656 -4.257812 7.578125 -4.59375 C 7.191406 -4.925781 6.53125 -5.207031 5.59375 -5.4375 C 4.15625 -5.78125 3.082031 -6.238281 2.375 -6.8125 C 1.675781 -7.394531 1.328125 -8.238281 1.328125 -9.34375 C 1.328125 -10.476562 1.769531 -11.382812 2.65625 -12.0625 C 3.550781 -12.75 4.640625 -13.09375 5.921875 -13.09375 Z M 5.921875 -13.09375 "/></g></g></g><g fill="#272830" fill-opacity="1"><g transform="translate(272.222218, 344.249977)"><g><path d="M 11.703125 -10.828125 L 7.34375 -10.828125 L 7.34375 0 L 4.78125 0 L 4.78125 -10.828125 L 0.421875 -10.828125 L 0.421875 -12.84375 L 11.703125 -12.84375 Z M 11.703125 -10.828125 "/></g></g></g><g fill="#272830" fill-opacity="1"><g transform="translate(286.05009, 344.249977)"><g><path d="M 8.609375 -3.875 L 4.296875 -3.875 L 3.015625 0 L 0.28125 0 L 4.90625 -12.84375 L 8.125 -12.84375 L 12.671875 0 L 9.875 0 Z M 6.46875 -10.640625 L 4.953125 -5.90625 L 7.96875 -5.90625 Z M 6.46875 -10.640625 "/></g></g></g><g fill="#272830" fill-opacity="1"><g transform="translate(300.864237, 344.249977)"><g><path d="M 12.9375 0 L 9.421875 0 L 4.125 -9.75 C 4.1875 -8.582031 4.21875 -7.269531 4.21875 -5.8125 L 4.21875 0 L 1.65625 0 L 1.65625 -12.84375 L 5.0625 -12.84375 L 10.453125 -2.90625 C 10.390625 -4.0625 10.359375 -5.40625 10.359375 -6.9375 L 10.359375 -12.84375 L 12.921875 -12.84375 Z M 12.9375 0 "/></g></g></g><g fill="#272830" fill-opacity="1"><g transform="translate(317.241578, 344.249977)"><g><path d="M 7.71875 -12.765625 C 9.3125 -12.578125 10.59375 -11.96875 11.5625 -10.9375 C 12.53125 -9.90625 13.015625 -8.457031 13.015625 -6.59375 C 13.015625 -4.707031 12.515625 -3.195312 11.515625 -2.0625 C 10.523438 -0.925781 9.25 -0.265625 7.6875 -0.078125 C 7.25 -0.0234375 6.703125 0 6.046875 0 L 1.65625 0 L 1.65625 -12.84375 L 6.078125 -12.84375 C 6.742188 -12.84375 7.289062 -12.816406 7.71875 -12.765625 Z M 7.109375 -2.078125 C 8.085938 -2.203125 8.863281 -2.65625 9.4375 -3.4375 C 10.007812 -4.21875 10.296875 -5.253906 10.296875 -6.546875 C 10.296875 -7.785156 10.015625 -8.765625 9.453125 -9.484375 C 8.890625 -10.203125 8.128906 -10.625 7.171875 -10.75 C 6.785156 -10.800781 6.320312 -10.828125 5.78125 -10.828125 L 4.21875 -10.828125 L 4.21875 -2.03125 L 5.75 -2.03125 C 6.382812 -2.03125 6.835938 -2.046875 7.109375 -2.078125 Z M 7.109375 -2.078125 "/></g></g></g><g fill="#272830" fill-opacity="1"><g transform="translate(333.079262, 344.249977)"><g/></g></g><g fill="#272830" fill-opacity="1"><g transform="translate(338.923713, 344.249977)"><g><path d="M 4.21875 0 L 1.65625 0 L 1.65625 -12.84375 L 4.21875 -12.84375 Z M 4.21875 0 "/></g></g></g><g fill="#272830" fill-opacity="1"><g transform="translate(346.591872, 344.249977)"><g><path d="M 11.703125 -10.828125 L 7.34375 -10.828125 L 7.34375 0 L 4.78125 0 L 4.78125 -10.828125 L 0.421875 -10.828125 L 0.421875 -12.84375 L 11.703125 -12.84375 Z M 11.703125 -10.828125 "/></g></g></g><g fill="#272830" fill-opacity="1"><g transform="translate(360.419744, 344.249977)"><g><path d="M 1.140625 -2.421875 C 1.429688 -2.710938 1.804688 -2.859375 2.265625 -2.859375 C 2.722656 -2.859375 3.097656 -2.710938 3.390625 -2.421875 C 3.679688 -2.128906 3.828125 -1.753906 3.828125 -1.296875 C 3.828125 -0.835938 3.679688 -0.460938 3.390625 -0.171875 C 3.097656 0.117188 2.722656 0.265625 2.265625 0.265625 C 1.804688 0.265625 1.429688 0.117188 1.140625 -0.171875 C 0.859375 -0.460938 0.71875 -0.835938 0.71875 -1.296875 C 0.71875 -1.753906 0.859375 -2.128906 1.140625 -2.421875 Z M 1.140625 -2.421875 "/></g></g></g></svg>