<svg xmlns="http://www.w3.org/2000/svg" xmlns:xlink="http://www.w3.org/1999/xlink" width="500" zoomAndPan="magnify" viewBox="0 0 375 374.999991" height="500" preserveAspectRatio="xMidYMid meet" version="1.0"><defs><g/><clipPath id="id1"><path d="M 38 16 L 328 16 L 328 267.5 L 38 267.5 Z M 38 16 " clip-rule="nonzero"/></clipPath></defs><rect x="-37.5" width="450" fill="#ffffff" y="-37.499999" height="449.999989" fill-opacity="1"/><rect x="-37.5" width="450" fill="#ffffff" y="-37.499999" height="449.999989" fill-opacity="1"/><rect x="-37.5" width="450" fill="#ffffff" y="-37.499999" height="449.999989" fill-opacity="1"/><g clip-path="url(#id1)"><path fill="#48af54" d="M 314.253906 29.625 C 291.09375 6.480469 244.671875 18.589844 209.808594 32.824219 C 172.289062 48.148438 132.40625 72.507812 112.828125 92.078125 C 76.878906 128.003906 74.667969 185.078125 106.195312 223.605469 L 89.019531 240.769531 C 84.527344 245.261719 78.550781 247.734375 72.195312 247.734375 C 65.839844 247.734375 59.863281 245.261719 55.371094 240.765625 C 51.515625 236.914062 45.265625 236.914062 41.414062 240.765625 C 37.558594 244.617188 37.558594 250.863281 41.414062 254.714844 C 49.632812 262.929688 60.570312 267.457031 72.195312 267.457031 C 83.820312 267.457031 94.753906 262.929688 102.976562 254.714844 L 120.152344 237.546875 C 138.167969 252.273438 160.230469 259.632812 182.289062 259.632812 C 207.449219 259.632812 232.601562 250.0625 251.757812 230.925781 C 271.335938 211.355469 295.714844 171.503906 311.042969 134 C 325.292969 99.164062 337.410156 52.769531 314.253906 29.625 Z M 292.773438 126.542969 C 276.664062 165.941406 252.929688 201.855469 237.800781 216.976562 C 222.972656 231.796875 203.261719 239.953125 182.289062 239.953125 C 161.320312 239.953125 141.609375 231.789062 126.78125 216.976562 C 111.949219 202.15625 103.789062 182.457031 103.789062 161.5 C 103.789062 140.539062 111.957031 120.839844 126.78125 106.019531 C 141.90625 90.902344 177.84375 67.175781 217.265625 51.078125 C 241.070312 41.359375 261.644531 36.40625 276.917969 36.40625 C 282.519531 36.40625 287.402344 37.082031 291.472656 38.425781 L 175.800781 154.027344 L 175.800781 110.574219 C 175.800781 105.128906 171.378906 100.710938 165.929688 100.710938 C 160.484375 100.710938 156.0625 105.128906 156.0625 110.574219 L 156.0625 177.847656 C 156.0625 183.292969 160.484375 187.710938 165.929688 187.710938 C 168.65625 187.710938 171.128906 186.605469 172.914062 184.820312 L 305.433594 52.382812 C 310.445312 67.535156 306.066406 94.03125 292.773438 126.542969 Z M 292.773438 126.542969 " fill-opacity="1" fill-rule="nonzero"/></g><g fill="#272830" fill-opacity="1"><g transform="translate(1.384042, 325.966474)"><g><path d="M 19.359375 -35.390625 C 23.878906 -35.390625 27.410156 -34.289062 29.953125 -32.09375 C 32.503906 -29.894531 33.960938 -27.003906 34.328125 -23.421875 L 34.375 -22.921875 L 27.4375 -22.921875 L 27.34375 -23.421875 C 26.4375 -27.941406 23.738281 -30.203125 19.25 -30.203125 C 16.4375 -30.203125 14.175781 -29.070312 12.46875 -26.8125 C 10.757812 -24.550781 9.90625 -21.460938 9.90625 -17.546875 C 9.90625 -13.359375 10.757812 -10.128906 12.46875 -7.859375 C 14.175781 -5.597656 16.40625 -4.46875 19.15625 -4.46875 C 21.363281 -4.46875 23.132812 -5.085938 24.46875 -6.328125 C 25.8125 -7.566406 26.71875 -9.296875 27.1875 -11.515625 L 27.296875 -12.015625 L 34.1875 -12.015625 L 34.125 -11.515625 C 33.757812 -7.753906 32.21875 -4.773438 29.5 -2.578125 C 26.789062 -0.390625 23.238281 0.703125 18.84375 0.703125 C 13.957031 0.703125 10.019531 -0.90625 7.03125 -4.125 C 4.050781 -7.34375 2.5625 -11.679688 2.5625 -17.140625 C 2.5625 -22.703125 4.132812 -27.132812 7.28125 -30.4375 C 10.4375 -33.738281 14.460938 -35.390625 19.359375 -35.390625 Z M 19.359375 -35.390625 "/></g></g></g><g fill="#272830" fill-opacity="1"><g transform="translate(36.466604, 325.966474)"><g><path d="M 28.09375 -19.953125 C 28.226562 -18.742188 28.296875 -17.117188 28.296875 -15.078125 L 28.296875 0 L 21.359375 0 L 21.359375 -14.125 C 21.359375 -15.695312 21.328125 -16.9375 21.265625 -17.84375 C 21.023438 -20.988281 19.316406 -22.5625 16.140625 -22.5625 C 14.328125 -22.53125 12.867188 -21.675781 11.765625 -20 C 10.660156 -18.332031 10.109375 -15.738281 10.109375 -12.21875 L 10.109375 0 L 3.171875 0 L 3.171875 -37.203125 L 10.109375 -37.203125 L 10.109375 -22.421875 L 12.171875 -25.578125 C 13.910156 -26.816406 16.050781 -27.4375 18.59375 -27.4375 C 21.414062 -27.4375 23.640625 -26.785156 25.265625 -25.484375 C 26.890625 -24.179688 27.832031 -22.335938 28.09375 -19.953125 Z M 28.09375 -19.953125 "/></g></g></g><g fill="#272830" fill-opacity="1"><g transform="translate(66.673778, 325.966474)"><g><path d="M 27.4375 -13.921875 C 27.4375 -12.953125 27.40625 -12.164062 27.34375 -11.5625 L 8.34375 -11.5625 C 8.75 -6.632812 10.8125 -4.171875 14.53125 -4.171875 C 16.03125 -4.171875 17.273438 -4.570312 18.265625 -5.375 C 19.253906 -6.175781 19.867188 -7.285156 20.109375 -8.703125 L 27.046875 -8.703125 C 26.367188 -5.648438 24.898438 -3.316406 22.640625 -1.703125 C 20.378906 -0.0976562 17.625 0.703125 14.375 0.703125 C 10.519531 0.703125 7.382812 -0.492188 4.96875 -2.890625 C 2.5625 -5.285156 1.359375 -8.742188 1.359375 -13.265625 C 1.359375 -17.421875 2.601562 -20.820312 5.09375 -23.46875 C 7.59375 -26.113281 10.867188 -27.4375 14.921875 -27.4375 C 18.847656 -27.4375 21.914062 -26.144531 24.125 -23.5625 C 26.332031 -20.988281 27.4375 -17.773438 27.4375 -13.921875 Z M 14.625 -22.5625 C 11.175781 -22.5625 9.148438 -20.398438 8.546875 -16.078125 L 20.3125 -16.078125 C 19.84375 -20.398438 17.945312 -22.5625 14.625 -22.5625 Z M 14.625 -22.5625 "/></g></g></g><g fill="#272830" fill-opacity="1"><g transform="translate(94.719703, 325.966474)"><g><path d="M 14.734375 -27.4375 C 18.242188 -27.4375 21.085938 -26.472656 23.265625 -24.546875 C 25.453125 -22.628906 26.675781 -20.144531 26.9375 -17.09375 L 20.109375 -17.09375 C 19.503906 -20.738281 17.660156 -22.5625 14.578125 -22.5625 C 12.734375 -22.5625 11.265625 -21.804688 10.171875 -20.296875 C 9.085938 -18.796875 8.546875 -16.570312 8.546875 -13.625 C 8.546875 -10.4375 9.082031 -8.0625 10.15625 -6.5 C 11.226562 -4.945312 12.6875 -4.171875 14.53125 -4.171875 C 15.90625 -4.171875 17.066406 -4.601562 18.015625 -5.46875 C 18.972656 -6.34375 19.617188 -7.601562 19.953125 -9.25 L 26.890625 -9.25 C 26.316406 -6.03125 24.898438 -3.566406 22.640625 -1.859375 C 20.378906 -0.148438 17.539062 0.703125 14.125 0.703125 C 10.332031 0.703125 7.253906 -0.492188 4.890625 -2.890625 C 2.535156 -5.285156 1.359375 -8.710938 1.359375 -13.171875 C 1.359375 -17.585938 2.628906 -21.066406 5.171875 -23.609375 C 7.722656 -26.160156 10.910156 -27.4375 14.734375 -27.4375 Z M 14.734375 -27.4375 "/></g></g></g><g fill="#272830" fill-opacity="1"><g transform="translate(121.911172, 325.966474)"><g><path d="M 12.3125 -10.5625 L 10.109375 -8.140625 L 10.109375 0 L 3.171875 0 L 3.171875 -36.9375 L 10.109375 -36.9375 L 10.109375 -14.53125 L 20.859375 -26.734375 L 29.203125 -26.734375 L 17.34375 -14.328125 L 29.359375 0 L 20.609375 0 Z M 12.3125 -10.5625 "/></g></g></g><g fill="#272830" fill-opacity="1"><g transform="translate(150.208404, 325.966474)"><g><path d="M 19.359375 -35.390625 C 23.878906 -35.390625 27.410156 -34.289062 29.953125 -32.09375 C 32.503906 -29.894531 33.960938 -27.003906 34.328125 -23.421875 L 34.375 -22.921875 L 27.4375 -22.921875 L 27.34375 -23.421875 C 26.4375 -27.941406 23.738281 -30.203125 19.25 -30.203125 C 16.4375 -30.203125 14.175781 -29.070312 12.46875 -26.8125 C 10.757812 -24.550781 9.90625 -21.460938 9.90625 -17.546875 C 9.90625 -13.359375 10.757812 -10.128906 12.46875 -7.859375 C 14.175781 -5.597656 16.40625 -4.46875 19.15625 -4.46875 C 21.363281 -4.46875 23.132812 -5.085938 24.46875 -6.328125 C 25.8125 -7.566406 26.71875 -9.296875 27.1875 -11.515625 L 27.296875 -12.015625 L 34.1875 -12.015625 L 34.125 -11.515625 C 33.757812 -7.753906 32.21875 -4.773438 29.5 -2.578125 C 26.789062 -0.390625 23.238281 0.703125 18.84375 0.703125 C 13.957031 0.703125 10.019531 -0.90625 7.03125 -4.125 C 4.050781 -7.34375 2.5625 -11.679688 2.5625 -17.140625 C 2.5625 -22.703125 4.132812 -27.132812 7.28125 -30.4375 C 10.4375 -33.738281 14.460938 -35.390625 19.359375 -35.390625 Z M 19.359375 -35.390625 "/></g></g></g><g fill="#272830" fill-opacity="1"><g transform="translate(185.290963, 325.966474)"><g><path d="M 5.03125 -23.546875 C 7.476562 -26.140625 10.878906 -27.4375 15.234375 -27.4375 C 19.585938 -27.4375 22.988281 -26.140625 25.4375 -23.546875 C 27.882812 -20.953125 29.109375 -17.5625 29.109375 -13.375 C 29.109375 -9.21875 27.882812 -5.832031 25.4375 -3.21875 C 22.988281 -0.601562 19.585938 0.703125 15.234375 0.703125 C 10.878906 0.703125 7.476562 -0.601562 5.03125 -3.21875 C 2.582031 -5.832031 1.359375 -9.21875 1.359375 -13.375 C 1.359375 -17.5625 2.582031 -20.953125 5.03125 -23.546875 Z M 10.328125 -6.609375 C 11.515625 -4.984375 13.144531 -4.171875 15.21875 -4.171875 C 17.300781 -4.171875 18.9375 -4.984375 20.125 -6.609375 C 21.320312 -8.234375 21.921875 -10.484375 21.921875 -13.359375 C 21.921875 -16.242188 21.320312 -18.5 20.125 -20.125 C 18.9375 -21.75 17.300781 -22.5625 15.21875 -22.5625 C 13.144531 -22.5625 11.515625 -21.75 10.328125 -20.125 C 9.140625 -18.5 8.546875 -16.242188 8.546875 -13.359375 C 8.546875 -10.484375 9.140625 -8.234375 10.328125 -6.609375 Z M 10.328125 -6.609375 "/></g></g></g><g fill="#272830" fill-opacity="1"><g transform="translate(214.74422, 325.966474)"><g><path d="M 28.09375 -19.953125 C 28.226562 -18.742188 28.296875 -17.117188 28.296875 -15.078125 L 28.296875 0 L 21.359375 0 L 21.359375 -14.125 C 21.359375 -15.695312 21.328125 -16.9375 21.265625 -17.84375 C 21.023438 -20.988281 19.316406 -22.5625 16.140625 -22.5625 C 14.328125 -22.5625 12.867188 -21.71875 11.765625 -20.03125 C 10.660156 -18.34375 10.109375 -15.738281 10.109375 -12.21875 L 10.109375 0 L 3.171875 0 L 3.171875 -26.734375 L 10.109375 -26.734375 L 10.109375 -22.421875 L 12.171875 -25.578125 C 13.910156 -26.816406 16.050781 -27.4375 18.59375 -27.4375 C 21.414062 -27.4375 23.640625 -26.785156 25.265625 -25.484375 C 26.890625 -24.179688 27.832031 -22.335938 28.09375 -19.953125 Z M 28.09375 -19.953125 "/></g></g></g><g fill="#272830" fill-opacity="1"><g transform="translate(244.951401, 325.966474)"><g><path d="M 14.734375 -27.4375 C 18.242188 -27.4375 21.085938 -26.472656 23.265625 -24.546875 C 25.453125 -22.628906 26.675781 -20.144531 26.9375 -17.09375 L 20.109375 -17.09375 C 19.503906 -20.738281 17.660156 -22.5625 14.578125 -22.5625 C 12.734375 -22.5625 11.265625 -21.804688 10.171875 -20.296875 C 9.085938 -18.796875 8.546875 -16.570312 8.546875 -13.625 C 8.546875 -10.4375 9.082031 -8.0625 10.15625 -6.5 C 11.226562 -4.945312 12.6875 -4.171875 14.53125 -4.171875 C 15.90625 -4.171875 17.066406 -4.601562 18.015625 -5.46875 C 18.972656 -6.34375 19.617188 -7.601562 19.953125 -9.25 L 26.890625 -9.25 C 26.316406 -6.03125 24.898438 -3.566406 22.640625 -1.859375 C 20.378906 -0.148438 17.539062 0.703125 14.125 0.703125 C 10.332031 0.703125 7.253906 -0.492188 4.890625 -2.890625 C 2.535156 -5.285156 1.359375 -8.710938 1.359375 -13.171875 C 1.359375 -17.585938 2.628906 -21.066406 5.171875 -23.609375 C 7.722656 -26.160156 10.910156 -27.4375 14.734375 -27.4375 Z M 14.734375 -27.4375 "/></g></g></g><g fill="#272830" fill-opacity="1"><g transform="translate(272.142882, 325.966474)"><g><path d="M 27.4375 -13.921875 C 27.4375 -12.953125 27.40625 -12.164062 27.34375 -11.5625 L 8.34375 -11.5625 C 8.75 -6.632812 10.8125 -4.171875 14.53125 -4.171875 C 16.03125 -4.171875 17.273438 -4.570312 18.265625 -5.375 C 19.253906 -6.175781 19.867188 -7.285156 20.109375 -8.703125 L 27.046875 -8.703125 C 26.367188 -5.648438 24.898438 -3.316406 22.640625 -1.703125 C 20.378906 -0.0976562 17.625 0.703125 14.375 0.703125 C 10.519531 0.703125 7.382812 -0.492188 4.96875 -2.890625 C 2.5625 -5.285156 1.359375 -8.742188 1.359375 -13.265625 C 1.359375 -17.421875 2.601562 -20.820312 5.09375 -23.46875 C 7.59375 -26.113281 10.867188 -27.4375 14.921875 -27.4375 C 18.847656 -27.4375 21.914062 -26.144531 24.125 -23.5625 C 26.332031 -20.988281 27.4375 -17.773438 27.4375 -13.921875 Z M 14.625 -22.5625 C 11.175781 -22.5625 9.148438 -20.398438 8.546875 -16.078125 L 20.3125 -16.078125 C 19.84375 -20.398438 17.945312 -22.5625 14.625 -22.5625 Z M 14.625 -22.5625 "/></g></g></g><g fill="#272830" fill-opacity="1"><g transform="translate(300.188802, 325.966474)"><g><path d="M 19.046875 -27.4375 C 22.734375 -27.4375 25.640625 -26.179688 27.765625 -23.671875 C 29.898438 -21.160156 30.96875 -17.894531 30.96875 -13.875 C 30.96875 -9.25 29.742188 -5.660156 27.296875 -3.109375 C 24.847656 -0.566406 21.796875 0.703125 18.140625 0.703125 C 15.398438 0.703125 13.304688 0.203125 11.859375 -0.796875 L 10.109375 -3.5625 L 10.109375 9.859375 L 3.171875 9.859375 L 3.171875 -26.734375 L 10.109375 -26.734375 L 10.109375 -22.671875 L 12.109375 -25.578125 C 13.648438 -26.816406 15.960938 -27.4375 19.046875 -27.4375 Z M 16.78125 -4.171875 C 18.863281 -4.171875 20.550781 -4.96875 21.84375 -6.5625 C 23.132812 -8.15625 23.78125 -10.441406 23.78125 -13.421875 C 23.78125 -16.171875 23.164062 -18.378906 21.9375 -20.046875 C 20.71875 -21.722656 19.085938 -22.5625 17.046875 -22.5625 C 14.960938 -22.5625 13.285156 -21.847656 12.015625 -20.421875 C 10.742188 -19.003906 10.109375 -16.753906 10.109375 -13.671875 L 10.109375 -12.421875 C 10.109375 -9.597656 10.757812 -7.515625 12.0625 -6.171875 C 13.375 -4.835938 14.945312 -4.171875 16.78125 -4.171875 Z M 16.78125 -4.171875 "/></g></g></g><g fill="#272830" fill-opacity="1"><g transform="translate(331.501735, 325.966474)"><g><path d="M 11.453125 -21.96875 L 11.453125 -9.59375 C 11.453125 -8.488281 11.472656 -7.703125 11.515625 -7.234375 C 11.609375 -5.929688 11.988281 -5.085938 12.65625 -4.703125 C 13.332031 -4.316406 14.625 -4.191406 16.53125 -4.328125 L 16.53125 0.203125 C 15.09375 0.429688 13.570312 0.546875 11.96875 0.546875 C 9.414062 0.546875 7.59375 0.117188 6.5 -0.734375 C 5.414062 -1.585938 4.789062 -2.984375 4.625 -4.921875 C 4.5625 -5.722656 4.53125 -7.015625 4.53125 -8.796875 L 4.53125 -21.96875 L 0.609375 -21.96875 L 0.609375 -26.546875 L 4.53125 -26.546875 L 4.53125 -33.125 L 11.453125 -33.125 L 11.453125 -26.546875 L 16.984375 -26.546875 L 16.984375 -21.96875 Z M 11.453125 -21.96875 "/></g></g></g><g fill="#272830" fill-opacity="1"><g transform="translate(348.640863, 325.966474)"><g><path d="M 12.71875 -27.4375 C 15.800781 -27.4375 18.265625 -26.664062 20.109375 -25.125 C 21.953125 -23.59375 23.023438 -21.550781 23.328125 -19 L 16.390625 -19 C 15.921875 -21.582031 14.546875 -22.875 12.265625 -22.875 C 11.253906 -22.875 10.472656 -22.613281 9.921875 -22.09375 C 9.367188 -21.570312 9.09375 -20.875 9.09375 -20 C 9.09375 -19 9.546875 -18.195312 10.453125 -17.59375 C 11.359375 -16.988281 12.9375 -16.398438 15.1875 -15.828125 C 18.09375 -15.097656 20.265625 -14.078125 21.703125 -12.765625 C 23.148438 -11.460938 23.875 -9.632812 23.875 -7.28125 C 23.875 -4.707031 22.84375 -2.734375 20.78125 -1.359375 C 18.71875 0.015625 16.082031 0.703125 12.875 0.703125 C 9.519531 0.703125 6.800781 -0.03125 4.71875 -1.5 C 2.644531 -2.976562 1.425781 -5.191406 1.0625 -8.140625 L 8 -8.140625 C 8.257812 -6.734375 8.832031 -5.671875 9.71875 -4.953125 C 10.613281 -4.234375 11.695312 -3.875 12.96875 -3.875 C 14.144531 -3.875 15.09375 -4.125 15.8125 -4.625 C 16.53125 -5.125 16.890625 -5.84375 16.890625 -6.78125 C 16.890625 -7.820312 16.398438 -8.664062 15.421875 -9.3125 C 14.453125 -9.96875 12.8125 -10.582031 10.5 -11.15625 C 7.789062 -11.832031 5.710938 -12.796875 4.265625 -14.046875 C 2.828125 -15.304688 2.109375 -17.023438 2.109375 -19.203125 C 2.109375 -21.742188 3.070312 -23.75 5 -25.21875 C 6.925781 -26.695312 9.5 -27.4375 12.71875 -27.4375 Z M 12.71875 -27.4375 "/></g></g></g></svg>